<svg xmlns="http://www.w3.org/2000/svg" xmlns:xlink="http://www.w3.org/1999/xlink" width="1920" zoomAndPan="magnify" viewBox="0 0 1440 809.999993" height="1080" preserveAspectRatio="xMidYMid meet" version="1.0"><defs><clipPath id="702c4743c8"><path d="M 189.816406 122 L 626.324219 122 L 626.324219 609.898438 L 189.816406 609.898438 Z M 189.816406 122 " clip-rule="nonzero"/></clipPath><clipPath id="51215e7ab3"><path d="M 81.066406 381.5 L 189.707031 121.996094 L 734.925781 350.332031 L 626.285156 609.835938 Z M 81.066406 381.5 " clip-rule="nonzero"/></clipPath><clipPath id="0accc975d7"><path d="M 189.988281 122.113281 L 351.640625 494.824219 L 626.285156 609.847656 L 464.808594 237.578125 L 464.625 237.136719 L 460.496094 235.40625 Z M 189.988281 122.113281 " clip-rule="nonzero"/></clipPath><clipPath id="c82cce2993"><path d="M 813 122 L 1251 122 L 1251 611 L 813 611 Z M 813 122 " clip-rule="nonzero"/></clipPath><clipPath id="5c9a46b9af"><path d="M 704.644531 350.410156 L 1250.5 121.835938 L 1359.273438 381.59375 L 813.414062 610.167969 Z M 704.644531 350.410156 " clip-rule="nonzero"/></clipPath><clipPath id="333da41c09"><path d="M 979.398438 235.355469 L 975.261719 237.089844 L 975.082031 237.527344 L 813.414062 610.167969 L 1088.378906 495.03125 L 1250.226562 121.949219 Z M 979.398438 235.355469 " clip-rule="nonzero"/></clipPath></defs><g clip-path="url(#702c4743c8)"><g clip-path="url(#51215e7ab3)"><g clip-path="url(#0accc975d7)"><path fill="#5ac8ff" d="M 626.285156 609.847656 L 81.585938 381.71875 L 190.226562 122.214844 L 734.929688 350.347656 L 626.285156 609.851562 Z M 626.285156 609.847656 " fill-opacity="1" fill-rule="nonzero"/></g></g></g><g clip-path="url(#c82cce2993)"><g clip-path="url(#5c9a46b9af)"><g clip-path="url(#333da41c09)"><path fill="#ff5757" d="M 704.644531 350.410156 L 1249.984375 122.050781 L 1358.757812 381.8125 L 813.414062 610.167969 Z M 704.644531 350.410156 " fill-opacity="1" fill-rule="nonzero"/></g></g></g></svg>