<?xml version="1.0" encoding="UTF-8"?>
<svg id="Layer_1" data-name="Layer 1" xmlns="http://www.w3.org/2000/svg" viewBox="0 0 177.3 170.88">
  <defs>
    <style>
      .cls-1 {
        fill: #fff;
      }

      .cls-1, .cls-2 {
        stroke-width: 0px;
      }

      .cls-3 {
        isolation: isolate;
      }

      .cls-3, .cls-4 {
        opacity: .93;
      }

      .cls-2 {
        fill: #2c2d36;
      }
    </style>
  </defs>
  <g id="Layer_2" data-name="Layer 2" class="cls-4">
    <g class="cls-3">
      <path class="cls-2" d="m82.02,168.88c-26.43,0-46.18-10.97-55.6-17.5l-.09-.06c-.68-.53-1.26-.92-1.87-1.33-1.33-.89-2.7-1.81-5.06-4.09C4.06,130.43,2,110.92,2,93.87,2,43.21,46.31,2,100.77,2c27.49,0,53.04,10.27,71.92,28.92l1.6,1.58-33.82,27.08-2.04.92-.98-.98c-9.79-9.85-23.79-15.49-38.42-15.49-28.44,0-51.58,20.81-51.58,46.38,0,9.06,2.9,17.83,8.39,25.35,1.02,1.39,2.19,2.81,3.47,4.2,5.74,5.01,13.61,7.56,23.39,7.56,10.59,0,20.28-3.03,23.28-4.07l10.48-41.97h41.94l-10.89,65.4-.72.48c-21.41,14.28-43.21,21.52-64.78,21.52h0Z"/>
      <path class="cls-1" d="m100.77,4c27.82,0,52.87,10.91,70.52,28.34l-31.86,25.51-.55.25c-9.81-9.87-24-16.08-39.84-16.08-29.61,0-53.58,21.66-53.58,48.39,0,9.79,3.22,18.91,8.77,26.53,1.13,1.54,2.36,3.02,3.68,4.45,7.07,6.23,16.25,8.12,24.79,8.12,13.24,0,24.97-4.55,24.97-4.55l10.36-41.48h38.02l-10.36,62.21c-23.77,15.86-45.37,21.19-63.67,21.19-25.71,0-44.9-10.52-54.46-17.15-2.23-1.73-3.44-2.06-6.76-5.28-13.97-14.08-16.8-31.84-16.8-50.58C4,44.22,47.33,4,100.77,4m0-4c-26.86,0-52.13,9.73-71.15,27.39C10.52,45.12,0,68.73,0,93.87c0,17.46,2.13,37.45,17.96,53.4l.03.03.03.03c2.49,2.4,4,3.42,5.33,4.32.61.41,1.13.76,1.75,1.24l.09.07.09.06c9.61,6.67,29.76,17.86,56.74,17.86,21.98,0,44.15-7.36,65.89-21.86l1.44-.96.28-1.71,10.36-62.21.78-4.66h-45.87l-.76,3.03-9.84,39.38c-3.71,1.2-12.33,3.62-21.61,3.62s-16.64-2.35-22-6.99c-1.2-1.31-2.29-2.64-3.25-3.95-5.23-7.17-8-15.53-8-24.17,0-24.47,22.24-44.39,49.58-44.39,14.1,0,27.58,5.43,37,14.9l1.95,1.96,2.53-1.14.55-.25.46-.21.4-.32,31.86-25.51,3.51-2.81-3.2-3.16c-9.34-9.22-20.35-16.47-32.73-21.56-12.82-5.27-26.48-7.94-40.59-7.94h0Z"/>
    </g>
  </g>
</svg>